<svg version="1.1" xmlns="http://www.w3.org/2000/svg" xmlns:xlink="http://www.w3.org/1999/xlink" width="41.9672" height="96.31579" viewBox="0,0,41.9672,96.31579"><defs><linearGradient x1="239.99984" y1="131.84221" x2="239.99984" y2="228.1576" gradientUnits="userSpaceOnUse" id="color-1"><stop offset="0" stop-color="#237013"/><stop offset="1" stop-color="#5fff27"/></linearGradient><linearGradient x1="239.99984" y1="135.45597" x2="239.99984" y2="224.54262" gradientUnits="userSpaceOnUse" id="color-2"><stop offset="0" stop-color="#00d61c"/><stop offset="1" stop-color="#1c8700"/></linearGradient></defs><g transform="translate(-219.0164,-131.84212)"><g data-paper-data="{&quot;isPaintingLayer&quot;:true}" fill-rule="nonzero" stroke="none" stroke-width="1" stroke-linecap="butt" stroke-linejoin="miter" stroke-miterlimit="10" stroke-dasharray="" stroke-dashoffset="0" style="mix-blend-mode: normal"><path d="M240.0004,228.15792c-11.57074,0 -20.984,-9.41407 -20.984,-20.984v-54.34859c0,-11.56993 9.41246,-20.9832 20.984,-20.9832c11.56993,0 20.9832,9.41246 20.9832,20.9832v54.34859c0,11.56993 -9.41327,20.984 -20.9832,20.984z" fill="url(#color-1)"/><path d="M240.0004,224.54286c-9.59305,0 -17.36975,-7.77589 -17.36975,-17.36895v-54.34859c0,-9.59305 7.7767,-17.36975 17.36975,-17.36975v0c9.59225,0 17.36895,7.77669 17.36895,17.36975v54.34859c0,9.59305 -7.7767,17.36895 -17.36895,17.36895z" fill="url(#color-2)"/><text transform="translate(228.7776,214.63066) scale(0.36277,0.36277)" font-size="40" xml:space="preserve" fill="#1b6611" fill-rule="nonzero" stroke="none" stroke-width="1" stroke-linecap="butt" stroke-linejoin="miter" stroke-miterlimit="10" stroke-dasharray="" stroke-dashoffset="0" font-family="Sans Serif" font-weight="normal" text-anchor="start" style="mix-blend-mode: normal"><tspan x="0" dy="0">ON</tspan></text><text transform="translate(225.7776,156.63066) scale(0.36277,0.36277)" font-size="40" xml:space="preserve" fill="#eaffe7" fill-rule="nonzero" stroke="none" stroke-width="1" stroke-linecap="butt" stroke-linejoin="miter" stroke-miterlimit="10" stroke-dasharray="" stroke-dashoffset="0" font-family="Sans Serif" font-weight="normal" text-anchor="start" style="mix-blend-mode: normal"><tspan x="0" dy="0">OFF</tspan></text></g></g></svg>