<svg version="1.1" xmlns="http://www.w3.org/2000/svg" xmlns:xlink="http://www.w3.org/1999/xlink" width="720" height="540" viewBox="0,0,720,540"><defs><clipPath id="clip-1"><rect x="-240" y="-180" transform="scale(0.5,0.5)" width="1440" height="1080" fill="none" fill-rule="nonzero" stroke-width="0.5"/></clipPath></defs><g transform="translate(120,90)"><g clip-path="url(#clip-1)" data-paper-data="{&quot;isPaintingLayer&quot;:true}" stroke="none" stroke-linecap="butt" stroke-linejoin="miter" stroke-miterlimit="10" stroke-dasharray="" stroke-dashoffset="0" style="mix-blend-mode: normal"><path d="M239.149,174.278l-11.908,-336.736h8.66z" fill="#faffb5" fill-rule="evenodd" stroke-width="1"/><path d="M238.659,174.37l-41.215,-334.418l8.629,-0.754z" fill="#faffb5" fill-rule="evenodd" stroke-width="1"/><path d="M238.174,174.505l-70.203,-329.555l8.53,-1.504z" fill="#faffb5" fill-rule="evenodd" stroke-width="1"/><path d="M237.705,174.682l-98.66,-322.185l8.367,-2.241z" fill="#faffb5" fill-rule="evenodd" stroke-width="1"/><path d="M237.254,174.899l-126.367,-312.361l8.139,-2.963z" fill="#faffb5" fill-rule="evenodd" stroke-width="1"/><path d="M236.825,175.153l-153.114,-300.16l7.85,-3.66z" fill="#faffb5" fill-rule="evenodd" stroke-width="1"/><path d="M236.416,175.444l-178.692,-285.674l7.501,-4.33z" fill="#faffb5" fill-rule="evenodd" stroke-width="1"/><path d="M236.037,175.772l-202.913,-269.016l7.096,-4.968z" fill="#faffb5" fill-rule="evenodd" stroke-width="1"/><path d="M235.686,176.13l-225.588,-250.307l6.635,-5.568z" fill="#faffb5" fill-rule="evenodd" stroke-width="1"/><path d="M235.368,176.516l-246.547,-229.693l6.125,-6.125z" fill="#faffb5" fill-rule="evenodd" stroke-width="1"/><path d="M235.084,176.93l-265.629,-207.332l5.568,-6.636z" fill="#faffb5" fill-rule="evenodd" stroke-width="1"/><path d="M234.84,177.368l-282.693,-183.395l4.969,-7.095z" fill="#faffb5" fill-rule="evenodd" stroke-width="1"/><path d="M234.633,177.823l-297.602,-158.057l4.331,-7.502z" fill="#faffb5" fill-rule="evenodd" stroke-width="1"/><path d="M234.467,178.296l-310.248,-131.518l3.661,-7.852z" fill="#faffb5" fill-rule="evenodd" stroke-width="1"/><path d="M234.342,178.782l-320.531,-103.979l2.962,-8.14z" fill="#faffb5" fill-rule="evenodd" stroke-width="1"/><path d="M234.26,179.276l-328.376,-75.646l2.242,-8.368z" fill="#faffb5" fill-rule="evenodd" stroke-width="1"/><path d="M234.223,179.776l-333.722,-46.74l1.504,-8.531z" fill="#faffb5" fill-rule="evenodd" stroke-width="1"/><path d="M234.227,180.276l-336.527,-17.475l0.755,-8.628z" fill="#faffb5" fill-rule="evenodd" stroke-width="1"/><path d="M234.278,180.774l-336.772,11.924l-0.001,-8.662z" fill="#faffb5" fill-rule="evenodd" stroke-width="1"/><path d="M234.37,181.266l-334.454,41.231l-0.755,-8.629z" fill="#faffb5" fill-rule="evenodd" stroke-width="1"/><path d="M234.504,181.751l-329.588,70.222l-1.505,-8.531z" fill="#faffb5" fill-rule="evenodd" stroke-width="1"/><path d="M234.68,182.217l-322.214,98.686l-2.243,-8.369z" fill="#faffb5" fill-rule="evenodd" stroke-width="1"/><path d="M234.897,182.671l-312.39,126.39l-2.963,-8.138z" fill="#faffb5" fill-rule="evenodd" stroke-width="1"/><path d="M235.153,183.102l-300.187,153.139l-3.662,-7.852z" fill="#faffb5" fill-rule="evenodd" stroke-width="1"/><path d="M235.444,183.508l-285.699,178.723l-4.332,-7.504z" fill="#faffb5" fill-rule="evenodd" stroke-width="1"/><path d="M235.772,183.889l-269.039,202.944l-4.968,-7.096z" fill="#faffb5" fill-rule="evenodd" stroke-width="1"/><path d="M236.129,184.239l-250.326,225.621l-5.57,-6.635z" fill="#faffb5" fill-rule="evenodd" stroke-width="1"/><path d="M236.516,184.557l-229.71,246.582l-6.127,-6.125z" fill="#faffb5" fill-rule="evenodd" stroke-width="1"/><path d="M236.93,184.84l-207.346,265.666l-6.637,-5.568z" fill="#faffb5" fill-rule="evenodd" stroke-width="1"/><path d="M237.368,185.087l-183.404,282.728l-7.098,-4.969z" fill="#faffb5" fill-rule="evenodd" stroke-width="1"/><path d="M237.825,185.292l-158.066,297.64l-7.503,-4.332z" fill="#faffb5" fill-rule="evenodd" stroke-width="1"/><path d="M238.295,185.46l-131.521,310.285l-7.853,-3.66z" fill="#faffb5" fill-rule="evenodd" stroke-width="1"/><path d="M238.782,185.583l-103.979,320.57l-8.142,-2.963z" fill="#faffb5" fill-rule="evenodd" stroke-width="1"/><path d="M239.276,185.665l-75.643,328.414l-8.369,-2.24z" fill="#faffb5" fill-rule="evenodd" stroke-width="1"/><path d="M239.776,185.702l-46.732,333.762l-8.532,-1.504z" fill="#faffb5" fill-rule="evenodd" stroke-width="1"/><path d="M214.182,521.506l26.096,-335.808l-17.465,336.564z" fill="#faffb5" fill-rule="evenodd" stroke-width="1"/><path d="M240.774,185.649l11.937,336.807l-8.664,0.002z" fill="#faffb5" fill-rule="evenodd" stroke-width="1"/><path d="M241.268,185.555l41.246,334.489l-8.631,0.755z" fill="#faffb5" fill-rule="evenodd" stroke-width="1"/><path d="M241.75,185.421l70.243,329.623l-8.532,1.504z" fill="#faffb5" fill-rule="evenodd" stroke-width="1"/><path d="M242.219,185.245l98.705,322.246l-8.367,2.244z" fill="#faffb5" fill-rule="evenodd" stroke-width="1"/><path d="M242.67,185.028l126.418,312.42l-8.14,2.963z" fill="#faffb5" fill-rule="evenodd" stroke-width="1"/><path d="M243.102,184.772l153.166,300.215l-7.852,3.662z" fill="#faffb5" fill-rule="evenodd" stroke-width="1"/><path d="M243.508,184.479l178.752,285.725l-7.502,4.334z" fill="#faffb5" fill-rule="evenodd" stroke-width="1"/><path d="M243.889,184.153l202.975,269.061l-7.096,4.97z" fill="#faffb5" fill-rule="evenodd" stroke-width="1"/><path d="M244.239,183.796l225.656,250.345l-6.637,5.571z" fill="#faffb5" fill-rule="evenodd" stroke-width="1"/><path d="M244.557,183.409l246.617,229.726l-6.125,6.127z" fill="#faffb5" fill-rule="evenodd" stroke-width="1"/><path d="M244.84,182.995l265.703,207.359l-5.568,6.639z" fill="#faffb5" fill-rule="evenodd" stroke-width="1"/><path d="M245.086,182.557l282.766,183.414l-4.969,7.098z" fill="#faffb5" fill-rule="evenodd" stroke-width="1"/><path d="M245.293,182.102l297.678,158.071l-4.332,7.503z" fill="#faffb5" fill-rule="evenodd" stroke-width="1"/><path d="M245.459,181.63l310.325,131.525l-3.661,7.853z" fill="#faffb5" fill-rule="evenodd" stroke-width="1"/><path d="M245.582,181.143l320.61,103.979l-2.963,8.142z" fill="#faffb5" fill-rule="evenodd" stroke-width="1"/><path d="M245.664,180.649l328.454,75.641l-2.241,8.369z" fill="#faffb5" fill-rule="evenodd" stroke-width="1"/><path d="M245.704,180.149l333.796,46.727l-1.502,8.531z" fill="#faffb5" fill-rule="evenodd" stroke-width="1"/><path d="M245.698,179.647l336.601,17.455l-0.754,8.633z" fill="#faffb5" fill-rule="evenodd" stroke-width="1"/><path d="M245.649,179.149l336.844,-11.949l0.002,8.664z" fill="#faffb5" fill-rule="evenodd" stroke-width="1"/><path d="M245.557,178.657l334.523,-41.264l0.756,8.633z" fill="#faffb5" fill-rule="evenodd" stroke-width="1"/><path d="M245.42,178.174l329.657,-70.261l1.505,8.531z" fill="#faffb5" fill-rule="evenodd" stroke-width="1"/><path d="M245.245,177.706l322.279,-98.729l2.244,8.369z" fill="#faffb5" fill-rule="evenodd" stroke-width="1"/><path d="M245.028,177.253l312.449,-126.442l2.965,8.143z" fill="#faffb5" fill-rule="evenodd" stroke-width="1"/><path d="M244.772,176.823l300.242,-153.195l3.664,7.853z" fill="#faffb5" fill-rule="evenodd" stroke-width="1"/><path d="M244.481,176.415l285.75,-178.78l4.332,7.502z" fill="#faffb5" fill-rule="evenodd" stroke-width="1"/><path d="M244.153,176.036l269.084,-203.008l4.97,7.098z" fill="#faffb5" fill-rule="evenodd" stroke-width="1"/><path d="M243.795,175.684l250.366,-225.687l5.572,6.636z" fill="#faffb5" fill-rule="evenodd" stroke-width="1"/><path d="M243.409,175.366l229.744,-246.652l6.127,6.126z" fill="#faffb5" fill-rule="evenodd" stroke-width="1"/><path d="M242.995,175.083l207.373,-265.739l6.638,5.571z" fill="#faffb5" fill-rule="evenodd" stroke-width="1"/><path d="M242.559,174.839l183.422,-282.805l7.099,4.969z" fill="#faffb5" fill-rule="evenodd" stroke-width="1"/><path d="M242.102,174.63l158.078,-297.715l7.504,4.332z" fill="#faffb5" fill-rule="evenodd" stroke-width="1"/><path d="M241.629,174.465l131.53,-310.363l7.853,3.662z" fill="#faffb5" fill-rule="evenodd" stroke-width="1"/><path d="M241.143,174.34l103.978,-320.646l8.145,2.963z" fill="#faffb5" fill-rule="evenodd" stroke-width="1"/><path d="M324.657,-151.992l-84.008,326.25l75.637,-328.49z" fill="#faffb5" fill-rule="evenodd" stroke-width="1"/><path d="M240.149,174.221l46.719,-333.836l8.535,1.504z" fill="#faffb5" fill-rule="evenodd" stroke-width="1"/><path d="M265.725,-161.66l-26.078,335.887l17.445,-336.64z" fill="#faffb5" fill-rule="evenodd" stroke-width="1"/></g></g></svg>